# xmcd
#
# Track frame offsets:
#   150
#   5272
#   10545
#   19462
#   25662
#   38712
#   44692
#   49520
#   60892
#   67917
#   73637
#   79185
#   83637
#   90012
#   96187
#   102212
#   107262
#   113675
#   119392
#   126875
#   134612
#   141215
#   145145
#   149912
#   153750
#   161255
#   167462
#   171492
#   174762
#   182650
#   188887
#   194247
#   205357
#   213750
#   219197
#   226117
#   232187
#   240787
#   246057
#   255625
#
# Disc length: 3497 seconds
#
# Revision: 0
# Processed by: cddbd v1.5PL3 Copyright (c) Steve Scherf et al.
# Submitted via: Media_Universe 3.0
#
DISCID=0c0da728
DTITLE=Various Artist - More Hooked On Country
DYEAR=1900
DGENRE=Country
TTITLE0=She's Got You
TTITLE1=Mamas Don't Let Your Babies Grow Up To Be Cowboys
TTITLE2=Always On My Mind
TTITLE3=He Stopped Loving Her Today
TTITLE4=She Believes In Me
TTITLE5=Angel In The Morning
TTITLE6=The Clown
TTITLE7=I Believe In You
TTITLE8=Crying'
TTITLE9=Could I Have This Dance
TTITLE10=Don't It Make My Brown Eyes Blue
TTITLE11=Tracks Of My Tears
TTITLE12=Have You Ever Been Lonely
TTITLE13=Another Sleepless Night
TTITLE14=Same Ole Me
TTITLE15=You Are My Jamaica
TTITLE16=I Wouldn't Have Missed It For The World
TTITLE17=On My Knees
TTITLE18=If I Said You Had A Beautiful Body
TTITLE19=Miss Emily's Picture
TTITLE20=Mountain Of Love
TTITLE21=Bobbie Sue
TTITLE22=Every Which Way But Loose
TTITLE23=Kiss An Angel Good Morning
TTITLE24=Say You'll Stay Until Tomorrow
TTITLE25=Big City
TTITLE26=I Love A Rainy Night
TTITLE27=When Will I Be Loved
TTITLE28=Please Mr Please
TTITLE29=Daytime Friends, Nightime Lovers
TTITLE30=You're My Favourite Star
TTITLE31=Rose Of Cimarron
TTITLE32=The Gambler
TTITLE33=Fourteen Carat Mind
TTITLE34=Red Neckin' Love Makin' Night
TTITLE35=The Bargin Store
TTITLE36=All I Ever Need Is You
TTITLE37=Rainbow Stew
TTITLE38=Mr Sandman
TTITLE39=Duelling Banjos
EXTD=
EXTT0=
EXTT1=
EXTT2=
EXTT3=
EXTT4=
EXTT5=
EXTT6=
EXTT7=
EXTT8=
EXTT9=
EXTT10=
EXTT11=
EXTT12=
EXTT13=
EXTT14=
EXTT15=
EXTT16=
EXTT17=
EXTT18=
EXTT19=
EXTT20=
EXTT21=
EXTT22=
EXTT23=
EXTT24=
EXTT25=
EXTT26=
EXTT27=
EXTT28=
EXTT29=
EXTT30=
EXTT31=
EXTT32=
EXTT33=
EXTT34=
EXTT35=
EXTT36=
EXTT37=
EXTT38=
EXTT39=
PLAYORDER=
